<svg width="39" height="41" viewBox="0 0 39 41" fill="none" xmlns="http://www.w3.org/2000/svg">
<g filter="url(#filter0_d_4_4102)">
<g clip-path="url(#clip0_4_4102)">
<path d="M29.5389 13.5356C30.1028 13.7141 30.4247 14.0157 30.4992 14.4457C30.5738 14.8756 30.414 15.3341 30.0256 15.8157C29.6089 16.3244 29.1067 16.6645 28.5358 16.8306C26.3366 17.4358 23.8149 17.5002 20.9709 17.0126C22.9963 15.3968 25.2344 14.2527 27.6912 13.5639C28.3573 13.3718 28.9695 13.3623 29.5389 13.5356ZM21.8828 7.14493C22.3799 6.77694 22.8832 6.65387 23.3926 6.77582C23.7907 6.89536 24.0895 7.2409 24.3056 7.81847C24.4822 8.42301 24.4811 9.01281 24.2913 9.57632C23.7192 11.4004 22.3164 13.5745 20.0941 16.0987C19.7683 13.5771 19.9919 11.117 20.7595 8.72391C20.9789 8.06641 21.3571 7.54013 21.8828 7.14493ZM27.491 23.9916C27.5291 24.5654 27.3751 25.0185 27.0174 25.3615C26.6938 25.6719 26.2298 25.7791 25.6308 25.6888C25.059 25.6268 24.5799 25.3887 24.1933 24.9857C22.723 23.4529 21.5442 21.2808 20.6625 18.4639C22.982 19.2911 25.0351 20.6245 26.8104 22.4752C27.2243 22.9067 27.4585 23.4123 27.4912 23.9805M11.5344 11.1525C11.4985 10.4675 11.6878 9.92616 12.1023 9.52863C12.4542 9.191 12.9909 9.0686 13.7012 9.16133C14.383 9.2812 14.9499 9.57674 15.391 10.0366C16.7197 11.4218 17.8433 13.5704 18.7568 16.4659C15.7251 15.3736 13.602 14.1944 12.3822 12.9228C11.8812 12.4005 11.604 11.816 11.5344 11.1525ZM17.9319 27.5037C17.4618 27.9001 16.9971 28.0407 16.5434 27.92C16.1453 27.8004 15.8574 27.4662 15.674 26.9227C15.4917 26.3236 15.4928 25.7338 15.6883 25.1648C16.5151 22.5949 17.7108 20.4778 19.2811 18.808C19.7091 21.5041 19.6046 23.8498 18.9733 25.8507C18.7526 26.5639 18.4017 27.1185 17.9316 27.5149M9.91799 21.4562C9.38377 21.1948 9.06365 20.8042 8.96869 20.2848C8.86579 19.8821 9.02561 19.4237 9.4423 18.9149C9.8579 18.4618 10.354 18.1494 10.9304 17.9889C13.1295 17.3837 15.6179 17.3186 18.4062 17.805C15.9962 19.7244 13.7276 20.9958 11.5898 21.5967C11.0076 21.7626 10.4522 21.7177 9.91799 21.4562Z" fill="#EDF738"/>
</g>
</g>
<defs>
<filter id="filter0_d_4_4102" x="-0.652344" y="0.917526" width="40.0957" height="40.0947" filterUnits="userSpaceOnUse" color-interpolation-filters="sRGB">
<feFlood flood-opacity="0" result="BackgroundImageFix"/>
<feColorMatrix in="SourceAlpha" type="matrix" values="0 0 0 0 0 0 0 0 0 0 0 0 0 0 0 0 0 0 127 0" result="hardAlpha"/>
<feOffset dy="4"/>
<feGaussianBlur stdDeviation="2"/>
<feComposite in2="hardAlpha" operator="out"/>
<feColorMatrix type="matrix" values="0 0 0 0 0 0 0 0 0 0 0 0 0 0 0 0 0 0 0.25 0"/>
<feBlend mode="normal" in2="BackgroundImageFix" result="effect1_dropShadow_4_4102"/>
<feBlend mode="normal" in="SourceGraphic" in2="effect1_dropShadow_4_4102" result="shape"/>
</filter>
<clipPath id="clip0_4_4102">
<rect width="22.6721" height="20.1529" fill="white" transform="translate(19.9707 32.1211) rotate(-133.808)"/>
</clipPath>
</defs>
</svg>
