<svg width="130" height="25" viewBox="0 0 130 25" fill="none" xmlns="http://www.w3.org/2000/svg">
<path d="M16.9297 20.2043L24.2333 18.2797L25.0845 15.2082L27.8269 5.14768H21.1457L21.3102 5.80529L23.081 12.2971L23.2978 13.0228C23.3901 13.4158 23.3901 13.8048 23.2978 14.1777L23.2697 14.2659C23.2536 14.306 23.2135 14.3301 23.1733 14.3301C23.1291 14.3301 23.097 14.298 23.085 14.2579L20.5955 5.14368H14.2636L17.8211 18.1594L20.6196 17.4536C20.6196 17.4536 20.6357 17.4536 20.6438 17.4536C20.6638 17.4536 20.6879 17.4616 20.6999 17.4737C20.724 17.4937 20.7401 17.5218 20.7401 17.5499V17.8466C20.7401 17.8907 20.708 17.9268 20.6679 17.9388L20.182 18.0752L17.4035 18.8009C16.2913 19.0455 15.4762 19.3944 14.9864 19.8274C14.4202 20.3968 14.1392 20.9783 14.1592 21.5596C14.1753 22.141 14.4322 22.6863 14.9261 23.1796C15.424 23.6768 16.0665 24.0216 16.8373 24.2141C17.6163 24.4106 18.5438 24.5108 19.5917 24.5108C22.0611 24.5108 24.5425 24.1098 26.9676 23.324V18.0752L26.1967 18.2877L17.0542 20.6575C16.9297 20.6815 16.8334 20.6655 16.7691 20.6093C16.6928 20.5492 16.6647 20.461 16.6968 20.3727C16.7169 20.3126 16.7731 20.2284 16.9337 20.2003L16.9297 20.2043Z" fill="#EDF738"/>
<path d="M39.7317 5.27199C38.6316 4.67454 37.4793 4.60637 36.3068 5.05947C34.9778 5.56069 34.1305 6.62729 33.7772 8.21917V8.21114C33.7772 8.21114 33.7371 8.46777 33.5323 8.47579C33.3275 8.4798 33.3155 8.18709 33.3155 8.18709V8.1951L33.2874 5.12363H28.5977V22.1411H34.4197V17.6301C34.4197 17.5779 34.4639 17.5339 34.5161 17.5339H37.9691C38.8885 17.5339 39.6876 17.201 40.3421 16.5515C40.9925 15.8979 41.3258 15.0999 41.3258 14.1817V7.82621C41.3258 6.68744 40.8038 5.84939 39.7317 5.27199ZM34.9938 16.2587C34.9938 16.3108 34.9496 16.355 34.8974 16.355H34.52C34.4678 16.355 34.4237 16.3108 34.4237 16.2587V9.87523C34.4237 9.57448 34.5803 9.39001 34.8814 9.34993C34.9135 9.34993 34.9376 9.34993 34.9577 9.37401C34.9818 9.39405 34.9938 9.42208 34.9938 9.44616V16.2628V16.2587Z" fill="#EDF738"/>
<path d="M51.5524 5.1557C50.6129 4.90309 49.5769 4.77077 48.4727 4.77077C47.3686 4.77077 46.3327 4.90309 45.3811 5.1557C44.4415 5.41233 43.6465 5.83736 43.0241 6.41477C42.4058 6.98416 42.0967 7.66181 42.0967 8.41965V14.1296C42.0967 14.8874 42.4099 15.557 43.0241 16.1184C43.6465 16.6878 44.4415 17.1128 45.3851 17.3774C46.3327 17.6421 47.3726 17.7785 48.4727 17.7785C49.5729 17.7785 50.6129 17.6421 51.5524 17.3774C52.484 17.1128 53.2749 16.6878 53.8973 16.1184C54.5116 15.557 54.8208 14.8874 54.8208 14.1296V11.4229H48.9988V15.7695C48.9988 16.0703 48.8422 16.2507 48.541 16.2948C48.5129 16.2948 48.4848 16.2868 48.4647 16.2708C48.4446 16.2507 48.4286 16.2226 48.4286 16.1986V10.9458C48.4286 10.8937 48.4727 10.8495 48.5249 10.8495H54.8208V8.41564C54.8208 7.6578 54.5076 6.98015 53.8973 6.41076C53.2749 5.83336 52.484 5.40832 51.5524 5.1517V5.1557ZM49.0027 9.60252C49.0027 9.65464 48.9586 9.69876 48.9064 9.69876H48.529C48.4808 9.69876 48.4326 9.65464 48.4326 9.60252V6.77565C48.4326 6.45487 48.5932 6.2624 48.8944 6.2223C48.9225 6.2223 48.9466 6.2223 48.9707 6.24636C48.9907 6.26641 49.0027 6.29448 49.0027 6.31854V9.60656V9.60252Z" fill="#EDF738"/>
<path d="M64.2605 4.79483C63.7024 4.71063 63.1202 4.83893 62.53 5.17575C62.4537 5.21986 62.3854 5.28001 62.3132 5.32813L62.3252 5.30807C60.2975 6.69144 60.3135 5.12362 60.3135 5.12362H55.5957V17.5378H61.4178V9.87523C61.4178 9.57448 61.5743 9.39001 61.8754 9.34993C61.9076 9.34993 61.9317 9.34993 61.9517 9.37401C61.9759 9.39405 61.9879 9.42209 61.9879 9.44617V11.7758H66.3524V7.3731C66.3524 6.67942 66.1396 6.09399 65.7301 5.62886C65.3165 5.16773 64.8226 4.88705 64.2605 4.79884V4.79483Z" fill="#EDF738"/>
<path d="M76.5748 5.1557C75.6352 4.90309 74.5993 4.77077 73.4991 4.77077C72.399 4.77077 71.355 4.90309 70.4074 5.1557C69.4639 5.41233 68.6689 5.83736 68.0465 6.41477C67.4322 6.98416 67.123 7.66181 67.123 8.41965V14.1296C67.123 14.8874 67.4362 15.557 68.0465 16.1184C68.6689 16.6878 69.4639 17.1128 70.4074 17.3774C71.355 17.6421 72.3949 17.7785 73.4991 17.7785C74.6034 17.7785 75.6352 17.6421 76.5748 17.3774C77.5063 17.1128 78.2973 16.6878 78.9197 16.1184C79.538 15.557 79.8471 14.8874 79.8471 14.1296V11.4229H74.0251V15.7695C74.0251 16.0703 73.8645 16.2507 73.5634 16.2948C73.5353 16.2948 73.5112 16.2868 73.4871 16.2708C73.467 16.2507 73.455 16.2226 73.455 16.1986V10.9458C73.455 10.8937 73.4991 10.8495 73.5513 10.8495H79.8471V8.41564C79.8471 7.6578 79.5339 6.98015 78.9197 6.41076C78.2973 5.83336 77.5063 5.40832 76.5748 5.1517V5.1557ZM74.0292 9.60252C74.0292 9.65464 73.985 9.69876 73.9328 9.69876H73.5553C73.5031 9.69876 73.459 9.65464 73.459 9.60252V6.77565C73.459 6.45487 73.6156 6.2624 73.9167 6.2223C73.9489 6.2223 73.9729 6.2223 73.9931 6.24636C74.0171 6.26641 74.0292 6.29448 74.0292 6.31854V9.60656V9.60252Z" fill="#EDF738"/>
<path d="M91.5035 5.16373C90.9856 4.92315 90.4151 4.79884 89.8051 4.79884C89.1942 4.79884 88.6245 4.89909 88.1704 5.09957C88.0379 5.15972 87.9094 5.23992 87.7809 5.32813C86.1431 6.44686 85.8902 5.54065 85.8498 5.21987V5.12364H85.8417V5.11561V5.12364H81.2685V10.3444H86.9543V9.09331C86.9543 8.79256 87.1103 8.60809 87.4117 8.56802H87.4278C87.4521 8.56802 87.4763 8.57604 87.4876 8.59208C87.5119 8.61213 87.524 8.63621 87.524 8.66424V10.6571C87.524 10.7052 87.4876 10.7413 87.444 10.7494L83.4523 11.4751C82.5813 11.6515 81.8832 12.0365 81.3809 12.6299C80.875 13.2193 80.6221 13.9612 80.6221 14.8313C80.6221 15.7014 80.9753 16.4432 81.678 17.0045C82.389 17.5699 83.2318 17.8586 84.1957 17.8586C85.1872 17.8747 86.0784 17.606 86.8218 17.0527C87.5604 16.5074 88.0419 15.5971 88.2512 14.3541C88.2593 14.306 88.2989 14.2739 88.3474 14.2739H88.5356C88.5882 14.2739 88.6326 14.318 88.6326 14.3701V17.5339H93.2416V7.82621C93.2416 7.23678 93.0808 6.70348 92.76 6.23835C92.4344 5.76921 92.0174 5.41234 91.5035 5.16373ZM87.528 13.3477C87.528 13.8128 87.3753 14.0694 87.0667 14.1175H87.0545C87.0303 14.1175 87.0061 14.1095 86.9899 14.0935C86.9697 14.0734 86.9584 14.0454 86.9584 14.0213V12.0003C86.9584 11.9523 86.9899 11.9162 87.0343 11.9041L87.4117 11.824C87.44 11.824 87.4682 11.824 87.4917 11.844C87.5119 11.864 87.528 11.8881 87.528 11.9202V13.3477Z" fill="#EDF738"/>
<path d="M98.8916 0.516418L94.041 1.86771V3.03455C94.041 3.05861 94.0329 3.08266 94.0127 3.0987V17.5378H100.349V5.0274C100.349 4.99933 100.361 4.97928 100.377 4.95924L100.349 0.520428H98.8916V0.516418Z" fill="#EDF738"/>
<path d="M107.721 5.14769H101.357V17.5339H107.721V5.14769Z" fill="#EDF738"/>
<path d="M106.954 1.13392C106.292 0.724926 105.476 0.516418 104.537 0.516418C103.598 0.516418 102.782 0.724926 102.12 1.13793C101.461 1.54292 101.14 2.02008 101.14 2.58946C101.14 3.15885 101.461 3.64403 102.12 4.06105C102.782 4.48207 103.598 4.69057 104.537 4.69057C105.476 4.69057 106.292 4.47806 106.954 4.06105C107.613 3.64002 107.934 3.16286 107.934 2.58946C107.934 2.01607 107.613 1.54292 106.954 1.13392Z" fill="#EDF738"/>
<path d="M118.811 11.5032L118.602 11.4791L115.113 10.7494C115.068 10.7413 115.037 10.7012 115.037 10.6571V8.63621C115.037 8.60809 115.048 8.58406 115.072 8.56401C115.092 8.54396 115.117 8.53595 115.149 8.53995C115.45 8.58406 115.606 8.77656 115.606 9.09331V10.3444H121.32V5.12364H116.715V5.17977C116.687 5.45645 116.458 6.51502 114.482 5.30408L114.491 5.32012C114.338 5.22789 114.185 5.14769 114.024 5.08755C113.498 4.89508 112.908 4.79884 112.274 4.79884C111.314 4.79884 110.467 5.08354 109.756 5.65293C109.058 6.21429 108.7 6.94407 108.7 7.82621V7.90641C108.7 8.70836 108.945 9.41409 109.436 10.0115C109.921 10.613 110.564 10.9979 111.346 11.1503L111.532 11.1783L115.017 11.9041C115.064 11.9162 115.092 11.9523 115.092 12.0003V13.9933C115.092 14.0213 115.08 14.0454 115.06 14.0654C115.037 14.0814 115.013 14.0935 114.984 14.0855C114.683 14.0413 114.523 13.8609 114.523 13.5602V12.3091H108.833V17.5298H113.414V17.4336C113.455 17.1329 113.724 16.2708 115.458 17.189C116.153 17.6261 116.964 17.8546 117.879 17.8546C118.795 17.8546 119.662 17.566 120.369 17.0006C121.071 16.4392 121.424 15.7094 121.424 14.8272V14.7471C121.424 13.9451 121.179 13.2394 120.694 12.638C120.208 12.0365 119.574 11.6556 118.807 11.4991L118.811 11.5032Z" fill="#EDF738"/>
<path d="M128.632 6.27845H129.668V5.12363H128.632C128.579 5.12363 128.536 5.07953 128.536 5.0274V1.70331H127.082L122.199 3.02653V14.8313C122.199 15.8096 122.686 16.5675 123.677 17.1449C124.681 17.7303 125.809 17.9629 127.034 17.8345C127.925 17.7383 129.668 17.1289 129.668 15.541C129.499 15.549 129.178 15.541 128.985 15.4247C128.688 15.2483 128.536 14.9837 128.536 14.6428V6.37468C128.536 6.32255 128.579 6.27845 128.632 6.27845Z" fill="#EDF738"/>
<path d="M14.1912 17.5378V7.72195C14.1912 6.64734 13.7696 5.83336 12.9384 5.29605C12.0551 4.70662 11.1035 4.6184 10.1198 5.03542C8.93531 5.54065 8.15637 6.61526 7.79902 8.21916V8.21115C7.79902 8.21115 7.75886 8.46777 7.54204 8.47579C7.32522 8.4798 7.31317 8.18709 7.31317 8.18709L7.26097 0.516418H5.83157L0.953125 1.86771V17.5378H7.26097V10.7814C7.26097 10.4606 7.41757 10.2682 7.71871 10.228C7.75083 10.228 7.77492 10.228 7.795 10.2521C7.81909 10.2721 7.83113 10.2962 7.83113 10.3243V17.5378H14.1912Z" fill="#EDF738"/>
</svg>
