<svg width="328" height="59" viewBox="0 0 328 59" fill="none" xmlns="http://www.w3.org/2000/svg">
<path d="M288.312 58.1846V0.00280762H304.108V45.4574H327.631V58.1846H288.312Z" fill="#EDF738"/>
<path d="M238.154 58.1846H221.109L240.313 0.00280762H261.904L281.109 58.1846H264.063L251.336 16.0255H250.882L238.154 58.1846ZM234.972 35.2301H267.018V47.0483H234.972V35.2301Z" fill="#EDF738"/>
<path d="M171.675 58.1846V0.00280762H213.607V12.7301H187.47V22.7301H211.448V35.4574H187.47V45.4574H213.493V58.1846H171.675Z" fill="#EDF738"/>
<path d="M122.312 0.00280762L134.244 41.0255H134.699L146.63 0.00280762H164.471L145.267 58.1846H123.676L104.471 0.00280762H122.312Z" fill="#EDF738"/>
<path d="M55.0375 58.1846V0.00280762H96.9693V12.7301H70.833V22.7301H94.8102V35.4574H70.833V45.4574H96.8557V58.1846H55.0375Z" fill="#EDF738"/>
<path d="M0 58.1846V0.00280762H25.1136C29.4318 0.00280762 33.2102 0.788794 36.4489 2.36076C39.6875 3.93273 42.2064 6.19599 44.0057 9.15054C45.8049 12.1051 46.7045 15.6467 46.7045 19.7755C46.7045 23.9422 45.7765 27.4555 43.9205 30.3153C42.0833 33.1752 39.4981 35.3343 36.1648 36.7926C32.8504 38.2509 28.9773 38.9801 24.5455 38.9801H9.54545V26.7074H21.3636C23.2197 26.7074 24.8011 26.4801 26.108 26.0255C27.4337 25.5521 28.447 24.8039 29.1477 23.7812C29.8674 22.7585 30.2273 21.4233 30.2273 19.7755C30.2273 18.1089 29.8674 16.7547 29.1477 15.713C28.447 14.6524 27.4337 13.8759 26.108 13.3835C24.8011 12.8721 23.2197 12.6164 21.3636 12.6164H15.7955V58.1846H0ZM34.0909 31.4801L48.6364 58.1846H31.4773L17.2727 31.4801H34.0909Z" fill="#EDF738"/>
</svg>
