<svg width="539" height="72" viewBox="0 0 539 72" fill="none" xmlns="http://www.w3.org/2000/svg">
<path d="M488.032 19.7301V7.00281H538.6V19.7301H521.1V65.1846H505.532V19.7301H488.032Z" fill="#EDF738"/>
<path d="M466.106 25.1846C465.954 23.2907 465.244 21.8134 463.975 20.7528C462.725 19.6922 460.821 19.1619 458.265 19.1619C456.636 19.1619 455.301 19.3608 454.259 19.7585C453.236 20.1373 452.479 20.6581 451.986 21.321C451.494 21.9839 451.238 22.7414 451.219 23.5937C451.181 24.2945 451.304 24.9289 451.588 25.4971C451.892 26.0464 452.365 26.5483 453.009 27.0028C453.653 27.4384 454.477 27.8361 455.481 28.196C456.484 28.5558 457.677 28.8778 459.06 29.1619L463.833 30.1846C467.052 30.8664 469.808 31.7661 472.1 32.8835C474.391 34.0009 476.266 35.3172 477.725 36.8324C479.183 38.3286 480.253 40.0142 480.935 41.8892C481.636 43.7642 481.996 45.8096 482.015 48.0255C481.996 51.8513 481.039 55.0899 479.145 57.7414C477.251 60.393 474.543 62.41 471.02 63.7926C467.517 65.1752 463.302 65.8664 458.378 65.8664C453.321 65.8664 448.909 65.1183 445.14 63.6221C441.39 62.1259 438.473 59.8248 436.39 56.7187C434.325 53.5937 433.284 49.5975 433.265 44.7301H448.265C448.359 46.5104 448.804 48.0066 449.6 49.2187C450.395 50.4308 451.513 51.3494 452.952 51.9744C454.41 52.5994 456.143 52.9119 458.151 52.9119C459.837 52.9119 461.248 52.7036 462.384 52.2869C463.52 51.8702 464.382 51.2926 464.969 50.5539C465.556 49.8153 465.859 48.9725 465.878 48.0255C465.859 47.1354 465.566 46.3589 464.998 45.696C464.448 45.0142 463.539 44.4081 462.27 43.8778C461.001 43.3286 459.287 42.8172 457.128 42.3437L451.333 41.0937C446.181 39.9763 442.119 38.1108 439.145 35.4971C436.191 32.8645 434.723 29.2755 434.742 24.7301C434.723 21.0369 435.708 17.8077 437.696 15.0426C439.704 12.2585 442.479 10.0899 446.02 8.5369C449.581 6.98387 453.662 6.20735 458.265 6.20735C462.962 6.20735 467.024 6.99334 470.452 8.56531C473.88 10.1373 476.522 12.3532 478.378 15.213C480.253 18.0539 481.2 21.3778 481.219 25.1846H466.106Z" fill="#EDF738"/>
<path d="M421.544 0.411896V71.7755H395.408V60.4119H406.317V11.7755H395.408V0.411896H421.544Z" fill="#EDF738"/>
<path d="M347.749 65.1846H330.704L349.908 7.00281H371.499L390.704 65.1846H373.658L360.931 23.0255H360.477L347.749 65.1846ZM344.567 42.2301H376.613V54.0483H344.567V42.2301Z" fill="#EDF738"/>
<path d="M299.892 71.7755V0.411896H326.029V11.7755H315.119V60.4119H326.029V71.7755H299.892Z" fill="#EDF738"/>
<path d="M244.436 65.1846V7.00281H286.367V19.7301H260.231V29.7301H284.208V42.4574H260.231V52.4574H286.254V65.1846H244.436Z" fill="#EDF738"/>
<path d="M189.398 65.1846V7.00281H214.625C219.057 7.00281 222.779 7.5994 225.79 8.79258C228.82 9.98576 231.103 11.6714 232.637 13.8494C234.19 16.0274 234.966 18.5937 234.966 21.5483C234.966 23.6884 234.493 25.6392 233.546 27.4005C232.618 29.1619 231.311 30.6392 229.625 31.8323C227.94 33.0066 225.97 33.821 223.716 34.2755V34.8437C226.216 34.9384 228.489 35.5729 230.534 36.7471C232.58 37.9024 234.209 39.5028 235.421 41.5483C236.633 43.5748 237.239 45.9611 237.239 48.7074C237.239 51.8892 236.406 54.7206 234.739 57.2017C233.091 59.6827 230.743 61.6335 227.694 63.0539C224.644 64.4744 221.008 65.1846 216.785 65.1846H189.398ZM205.194 52.571H212.58C215.231 52.571 217.22 52.0786 218.546 51.0937C219.872 50.0899 220.535 48.6127 220.535 46.6619C220.535 45.2983 220.222 44.143 219.597 43.196C218.972 42.249 218.082 41.5293 216.927 41.0369C215.79 40.5445 214.417 40.2983 212.807 40.2983H205.194V52.571ZM205.194 30.5255H211.671C213.053 30.5255 214.275 30.3077 215.336 29.8721C216.396 29.4365 217.22 28.8115 217.807 27.9971C218.413 27.1638 218.716 26.1505 218.716 24.9573C218.716 23.1581 218.072 21.785 216.785 20.838C215.497 19.8721 213.868 19.3892 211.898 19.3892H205.194V30.5255Z" fill="#EDF738"/>
<path d="M120.495 65.1846V7.00281H162.427V19.7301H136.29V29.7301H160.268V42.4574H136.29V52.4574H162.313V65.1846H120.495Z" fill="#EDF738"/>
<path d="M58.895 65.1846V7.00281H74.6905V29.7301H95.5996V7.00281H111.395V65.1846H95.5996V42.4574H74.6905V65.1846H58.895Z" fill="#EDF738"/>
<path d="M0.782227 19.7301V7.00281H51.3504V19.7301H33.8504V65.1846H18.2822V19.7301H0.782227Z" fill="#EDF738"/>
</svg>
